<?xml version="1.0" encoding="utf-8"?>
<!-- Generator: Adobe Illustrator 25.2.3, SVG Export Plug-In . SVG Version: 6.00 Build 0)  -->
<svg version="1.1" id="Calque_1" xmlns="http://www.w3.org/2000/svg" xmlns:xlink="http://www.w3.org/1999/xlink" x="0px" y="0px"
	 viewBox="0 0 29.04 28.18" style="enable-background:new 0 0 29.04 28.18;" xml:space="preserve">
<style type="text/css">
	.st0{fill:#0F5490;}
</style>
<g id="BLEU">
	<path class="st0" d="M24.48,28.09h-5.75l1.85-16.6c0.1-0.94,0.04-1.83-0.17-2.67c-0.21-0.84-0.56-1.57-1.03-2.19
		C18.91,6,18.3,5.51,17.56,5.16C16.83,4.81,15.97,4.63,15,4.63c-1.72,0-3.02,0.46-3.93,1.39c-0.91,0.93-1.5,2.41-1.78,4.46
		L7.33,28.09H1.59L3.7,8.96c0.31-2.96,1.37-5.18,3.17-6.66c1.8-1.48,4.13-2.22,6.99-2.22c1.72,0,3.23,0.41,4.56,1.23
		c1.33,0.82,2.35,1.96,3.07,3.4l0.11-0.1l0.4-4.41h5.44L24.48,28.09z"/>
</g>
</svg>
