<?xml version="1.0" encoding="utf-8"?>
<!-- Generator: Adobe Illustrator 25.2.3, SVG Export Plug-In . SVG Version: 6.00 Build 0)  -->
<svg version="1.1" id="Calque_1" xmlns="http://www.w3.org/2000/svg" xmlns:xlink="http://www.w3.org/1999/xlink" x="0px" y="0px"
	 viewBox="0 0 23 18" style="enable-background:new 0 0 23 18;" xml:space="preserve">
<style type="text/css">
	.st0{enable-background:new    ;}
	.st1{fill:#CCCCCC;}
</style>
<g class="st0">
	<path class="st1" d="M3.6,11.89c0,0.07,0,0.13,0,0.2v0.33c0,0.75,0.23,1.36,0.7,1.82c0.47,0.47,1.18,0.7,2.15,0.7
		c0.35,0,0.66-0.05,0.94-0.16s0.52-0.25,0.72-0.41C8.32,14.2,8.5,14,8.66,13.79c0.16-0.22,0.3-0.43,0.44-0.62h3.55
		c-0.28,0.73-0.62,1.38-1,1.92c-0.38,0.55-0.84,1.01-1.38,1.39c-0.53,0.38-1.15,0.65-1.86,0.84c-0.71,0.18-1.53,0.28-2.46,0.28
		c-0.87,0-1.65-0.12-2.36-0.35C2.88,17,2.28,16.65,1.78,16.17c-0.5-0.47-0.89-1.06-1.16-1.76c-0.27-0.7-0.41-1.52-0.41-2.45
		c0-1.03,0.17-2.03,0.5-2.99c0.33-0.96,0.8-1.81,1.41-2.55c0.61-0.74,1.35-1.33,2.24-1.77c0.88-0.44,1.88-0.66,2.97-0.66
		c0.9,0,1.72,0.12,2.46,0.35c0.74,0.23,1.38,0.59,1.9,1.06c0.53,0.47,0.93,1.07,1.23,1.77c0.29,0.71,0.44,1.53,0.44,2.46
		c0,0.63-0.07,1.31-0.2,2.03H3.62C3.61,11.75,3.6,11.82,3.6,11.89z M9.84,8.42C9.78,8.1,9.67,7.8,9.5,7.54S9.09,7.06,8.78,6.9
		C8.46,6.74,8.04,6.66,7.53,6.66c-0.5,0-0.94,0.07-1.33,0.22c-0.38,0.15-0.72,0.35-1,0.6S4.68,8.03,4.49,8.36
		C4.3,8.7,4.13,9.05,4,9.41h5.92C9.92,9.08,9.9,8.75,9.84,8.42z"/>
	<path class="st1" d="M22.8,4.34l-0.55,2.38h-2.53l-1.33,6.42c-0.03,0.13-0.06,0.25-0.07,0.36c-0.02,0.11-0.03,0.19-0.03,0.24
		c0,0.23,0.04,0.41,0.11,0.54s0.17,0.22,0.29,0.29c0.12,0.07,0.25,0.1,0.39,0.11c0.14,0.01,0.28,0.01,0.41,0.01
		c0.43,0,0.86-0.02,1.27-0.08l-0.6,2.73c-0.37,0.03-0.73,0.06-1.1,0.09c-0.37,0.03-0.74,0.04-1.12,0.04c-0.42,0-0.83-0.04-1.24-0.11
		c-0.41-0.08-0.77-0.21-1.1-0.4s-0.58-0.45-0.78-0.79c-0.19-0.33-0.28-0.77-0.26-1.3c0-0.17,0.02-0.35,0.05-0.56
		c0.03-0.21,0.08-0.43,0.12-0.66l1.45-6.92h-2.33l0.55-2.38h2.28l0.8-3.92h3.55l-0.8,3.92H22.8z"/>
</g>
</svg>
