<?xml version="1.0" encoding="utf-8"?>
<!-- Generator: Adobe Illustrator 25.2.3, SVG Export Plug-In . SVG Version: 6.00 Build 0)  -->
<svg version="1.1" id="Calque_1" xmlns="http://www.w3.org/2000/svg" xmlns:xlink="http://www.w3.org/1999/xlink" x="0px" y="0px"
	 viewBox="0 0 1083 156" style="enable-background:new 0 0 1083 156;" xml:space="preserve">
<style type="text/css">
	.st0{fill:#E9B72D;}
</style>
<g>
	<path class="st0" d="M17.37,1.04h24.1L25.6,152H1.5L17.37,1.04z"/>
	<path class="st0" d="M65.15,103.58c-0.44,4.23-0.28,8.32,0.51,12.26c0.78,3.95,2.22,7.4,4.3,10.36c2.08,2.96,4.87,5.32,8.35,7.08
		c3.48,1.76,7.76,2.64,12.83,2.64c7.05,0,12.88-1.51,17.5-4.55c4.62-3.03,8.3-7.58,11.05-13.64h22.84
		c-1.89,5.92-4.63,11.21-8.22,15.86c-3.59,4.65-7.74,8.56-12.44,11.74c-4.7,3.17-9.86,5.57-15.45,7.19
		c-5.6,1.62-11.36,2.43-17.28,2.43c-8.6,0-16.06-1.41-22.39-4.23c-6.33-2.82-11.52-6.77-15.56-11.84
		c-4.05-5.07-6.86-11.13-8.45-18.18c-1.59-7.05-1.93-14.8-1.04-23.26c0.81-7.75,2.82-15.12,6.02-22.09
		c3.2-6.98,7.37-13.11,12.5-18.39c5.13-5.29,11.11-9.48,17.92-12.58c6.81-3.1,14.3-4.65,22.48-4.65c8.6,0,16.12,1.8,22.59,5.39
		c6.46,3.59,11.63,8.35,15.52,14.27c3.89,5.92,6.45,12.72,7.69,20.4c1.23,7.68,0.93,15.61-0.91,23.79H65.15z M123.06,87.73
		c0.12-3.81-0.31-7.47-1.28-10.99c-0.97-3.52-2.48-6.59-4.53-9.2c-2.05-2.61-4.65-4.72-7.79-6.34c-3.14-1.62-6.76-2.43-10.84-2.43
		c-4.23,0-8.15,0.74-11.76,2.22c-3.61,1.48-6.79,3.52-9.52,6.13c-2.74,2.61-5.04,5.67-6.89,9.2c-1.85,3.52-3.06,7.33-3.63,11.42
		H123.06z"/>
	<path class="st0" d="M170.1,116.9c-0.04,7.05,2.12,11.98,6.48,14.8c4.36,2.82,9.77,4.23,16.26,4.23c2.25,0,4.85-0.17,7.77-0.53
		c2.92-0.35,5.71-1.02,8.35-2.01c2.64-0.98,4.87-2.43,6.69-4.33c1.82-1.9,2.82-4.4,3.01-7.51c0.18-3.1-0.68-5.64-2.58-7.61
		c-1.91-1.97-4.46-3.56-7.64-4.76c-3.19-1.2-6.85-2.22-10.99-3.07c-4.14-0.85-8.34-1.76-12.61-2.75c-4.41-0.98-8.62-2.18-12.62-3.59
		c-4.01-1.41-7.55-3.31-10.61-5.71c-3.06-2.4-5.38-5.46-6.96-9.2c-1.58-3.73-2.08-8.35-1.51-13.85c0.62-5.92,2.59-10.89,5.9-14.91
		c3.31-4.02,7.32-7.26,12.02-9.73c4.7-2.46,9.81-4.19,15.34-5.18c5.53-0.98,10.76-1.48,15.7-1.48c5.64,0,10.96,0.6,15.99,1.8
		c5.02,1.2,9.47,3.14,13.34,5.81c3.87,2.68,6.96,6.17,9.26,10.47c2.3,4.3,3.48,9.48,3.55,15.54h-25.16
		c-0.52-5.78-2.76-9.65-6.71-11.63c-3.95-1.97-8.61-2.96-13.96-2.96c-1.69,0-3.72,0.14-6.07,0.42c-2.36,0.28-4.6,0.81-6.72,1.59
		c-2.13,0.78-3.97,1.9-5.54,3.38c-1.57,1.48-2.47,3.42-2.73,5.81c-0.31,2.96,0.46,5.36,2.31,7.19c1.85,1.83,4.37,3.35,7.56,4.55
		c3.18,1.2,6.85,2.22,10.99,3.07c4.14,0.85,8.41,1.76,12.82,2.75c4.26,0.99,8.44,2.19,12.52,3.59c4.08,1.41,7.65,3.31,10.71,5.71
		c3.06,2.4,5.42,5.43,7.08,9.09c1.66,3.67,2.21,8.18,1.64,13.53c-0.68,6.48-2.74,11.98-6.17,16.49c-3.43,4.51-7.66,8.18-12.68,10.99
		c-5.02,2.82-10.48,4.86-16.4,6.13c-5.91,1.27-11.69,1.9-17.33,1.9c-6.91,0-13.21-0.78-18.89-2.33c-5.69-1.55-10.51-3.91-14.48-7.08
		c-3.97-3.17-6.94-7.12-8.9-11.84c-1.97-4.72-2.69-10.32-2.14-16.81H170.1z"/>
	<path class="st0" d="M377.03,79.27c-0.28-6.77-2.45-11.87-6.53-15.33c-4.08-3.45-9.5-5.18-16.26-5.18c-3.1,0-6.47,0.53-10.1,1.59
		c-3.64,1.06-7.08,3.03-10.35,5.92c-3.26,2.89-6.15,6.91-8.67,12.05c-2.52,5.15-4.21,11.88-5.08,20.19
		c-0.47,4.51-0.42,9.02,0.16,13.53c0.58,4.51,1.85,8.53,3.81,12.05c1.96,3.53,4.65,6.38,8.09,8.56c3.43,2.19,7.76,3.28,12.98,3.28
		c7.05,0,13.09-2.18,18.13-6.55c5.04-4.37,8.54-10.5,10.5-18.39h24.1c-3.75,14.24-10.29,25.13-19.61,32.67
		c-9.32,7.54-21.03,11.31-35.12,11.31c-8.6,0-16.02-1.45-22.27-4.33s-11.37-6.84-15.35-11.84c-3.99-5-6.78-10.96-8.38-17.87
		c-1.6-6.9-1.98-14.38-1.13-22.41c0.86-8.17,2.79-15.86,5.81-23.05c3.01-7.19,7.05-13.43,12.11-18.71
		c5.06-5.29,11.1-9.44,18.12-12.48c7.01-3.03,15.03-4.55,24.05-4.55c6.34,0,12.28,0.81,17.82,2.43c5.54,1.62,10.36,4.05,14.46,7.29
		c4.1,3.24,7.3,7.33,9.6,12.26c2.3,4.94,3.38,10.78,3.23,17.55H377.03z"/>
	<path class="st0" d="M452.38,154.96c-8.74,0-16.38-1.45-22.91-4.33c-6.53-2.89-11.89-6.87-16.08-11.95
		c-4.19-5.08-7.15-11.13-8.87-18.18c-1.73-7.05-2.14-14.8-1.26-23.26c0.87-8.32,2.91-16,6.12-23.05c3.2-7.05,7.44-13.11,12.69-18.18
		c5.25-5.07,11.45-9.05,18.59-11.95c7.14-2.89,15.08-4.33,23.82-4.33c8.74,0,16.37,1.45,22.91,4.33
		c6.53,2.89,11.89,6.87,16.08,11.95c4.19,5.07,7.14,11.14,8.87,18.18c1.72,7.05,2.15,14.73,1.28,23.05
		c-0.89,8.46-2.94,16.21-6.14,23.26c-3.21,7.05-7.44,13.11-12.69,18.18c-5.26,5.07-11.45,9.06-18.59,11.95
		C469.06,153.51,461.12,154.96,452.38,154.96z M454.38,135.93c5.35,0,10.12-1.13,14.31-3.38c4.18-2.25,7.74-5.21,10.66-8.88
		c2.92-3.66,5.22-7.79,6.9-12.37c1.68-4.58,2.77-9.27,3.28-14.06c0.49-4.65,0.38-9.3-0.33-13.95c-0.71-4.65-2.14-8.77-4.3-12.37
		c-2.16-3.59-5.1-6.52-8.8-8.77c-3.71-2.25-8.24-3.38-13.6-3.38c-5.36,0-10.13,1.13-14.31,3.38c-4.18,2.26-7.73,5.18-10.65,8.77
		c-2.92,3.59-5.22,7.72-6.9,12.37c-1.69,4.65-2.78,9.3-3.26,13.95c-0.5,4.79-0.4,9.48,0.32,14.06c0.71,4.58,2.15,8.71,4.3,12.37
		c2.15,3.67,5.08,6.63,8.79,8.88C444.49,134.81,449.02,135.93,454.38,135.93z"/>
	<path class="st0" d="M613.38,152H589.7l1.6-15.22h-0.42c-3.54,5.5-8.41,9.9-14.6,13.21c-6.2,3.31-12.33,4.97-18.39,4.97
		c-14.38,0-24.4-3.56-30.06-10.68c-5.67-7.12-7.74-17.87-6.23-32.24l7.29-69.35h24.1l-7.04,67.02c-1.01,9.59,0.11,16.35,3.36,20.3
		c3.25,3.95,8.18,5.92,14.81,5.92c5.08,0,9.39-0.77,12.93-2.33c3.55-1.55,6.51-3.63,8.9-6.24c2.39-2.61,4.23-5.74,5.53-9.41
		c1.3-3.66,2.17-7.61,2.62-11.84l6.67-63.43h24.1L613.38,152z"/>
	<path class="st0" d="M650.05,116.9c-0.04,7.05,2.12,11.98,6.48,14.8c4.36,2.82,9.77,4.23,16.26,4.23c2.25,0,4.85-0.17,7.77-0.53
		c2.92-0.35,5.71-1.02,8.35-2.01c2.64-0.98,4.87-2.43,6.69-4.33c1.82-1.9,2.82-4.4,3.01-7.51c0.18-3.1-0.68-5.64-2.58-7.61
		c-1.91-1.97-4.46-3.56-7.64-4.76c-3.19-1.2-6.85-2.22-10.99-3.07c-4.14-0.85-8.34-1.76-12.61-2.75c-4.41-0.98-8.62-2.18-12.62-3.59
		c-4.01-1.41-7.55-3.31-10.61-5.71c-3.06-2.4-5.38-5.46-6.96-9.2c-1.58-3.73-2.08-8.35-1.51-13.85c0.62-5.92,2.59-10.89,5.9-14.91
		c3.31-4.02,7.32-7.26,12.02-9.73c4.7-2.46,9.81-4.19,15.34-5.18c5.53-0.98,10.76-1.48,15.7-1.48c5.64,0,10.96,0.6,15.99,1.8
		c5.02,1.2,9.47,3.14,13.34,5.81c3.87,2.68,6.96,6.17,9.26,10.47c2.3,4.3,3.48,9.48,3.55,15.54h-25.16
		c-0.52-5.78-2.76-9.65-6.71-11.63c-3.95-1.97-8.61-2.96-13.96-2.96c-1.69,0-3.72,0.14-6.07,0.42c-2.36,0.28-4.6,0.81-6.72,1.59
		c-2.13,0.78-3.97,1.9-5.54,3.38c-1.57,1.48-2.47,3.42-2.73,5.81c-0.31,2.96,0.46,5.36,2.31,7.19c1.85,1.83,4.37,3.35,7.56,4.55
		c3.18,1.2,6.85,2.22,10.99,3.07c4.14,0.85,8.41,1.76,12.82,2.75c4.26,0.99,8.44,2.19,12.52,3.59c4.08,1.41,7.65,3.31,10.71,5.71
		c3.06,2.4,5.42,5.43,7.08,9.09c1.66,3.67,2.21,8.18,1.64,13.53c-0.68,6.48-2.74,11.98-6.17,16.49c-3.43,4.51-7.66,8.18-12.68,10.99
		c-5.02,2.82-10.48,4.86-16.4,6.13c-5.91,1.27-11.69,1.9-17.33,1.9c-6.91,0-13.21-0.78-18.89-2.33c-5.69-1.55-10.51-3.91-14.48-7.08
		c-3.97-3.17-6.94-7.12-8.9-11.84c-1.97-4.72-2.69-10.32-2.14-16.81H650.05z"/>
	<path class="st0" d="M743.84,1.04h24.1l-2.4,22.83h-24.1L743.84,1.04z M739.46,42.69h24.1L752.07,152h-24.1L739.46,42.69z"/>
	<path class="st0" d="M863.71,152h-24.1l6.78-64.49c0.41-3.94,0.17-7.68-0.72-11.21c-0.9-3.52-2.34-6.59-4.32-9.2
		c-1.98-2.61-4.51-4.65-7.6-6.13c-3.09-1.48-6.67-2.22-10.76-2.22c-7.19,0-12.68,1.94-16.47,5.81c-3.79,3.88-6.28,10.12-7.46,18.71
		L791.82,152h-24.1l7.89-75.06c1.3-12.4,5.74-21.7,13.29-27.91c7.56-6.2,17.33-9.3,29.31-9.3c7.19,0,13.56,1.73,19.12,5.18
		c5.56,3.46,9.85,8.21,12.88,14.27l0.47-0.42l1.69-16.07h22.83L863.71,152z"/>
	<path class="st0" d="M902.41,103.58c-0.44,4.23-0.28,8.32,0.51,12.26c0.78,3.95,2.22,7.4,4.3,10.36c2.08,2.96,4.87,5.32,8.35,7.08
		c3.48,1.76,7.76,2.64,12.83,2.64c7.05,0,12.88-1.51,17.5-4.55c4.62-3.03,8.3-7.58,11.05-13.64h22.84
		c-1.89,5.92-4.63,11.21-8.22,15.86c-3.59,4.65-7.74,8.56-12.44,11.74c-4.7,3.17-9.86,5.57-15.45,7.19
		c-5.6,1.62-11.36,2.43-17.28,2.43c-8.6,0-16.06-1.41-22.39-4.23c-6.33-2.82-11.52-6.77-15.56-11.84
		c-4.05-5.07-6.86-11.13-8.45-18.18c-1.59-7.05-1.93-14.8-1.04-23.26c0.81-7.75,2.82-15.12,6.02-22.09
		c3.2-6.98,7.37-13.11,12.5-18.39c5.13-5.29,11.11-9.48,17.92-12.58c6.81-3.1,14.3-4.65,22.48-4.65c8.6,0,16.12,1.8,22.59,5.39
		c6.46,3.59,11.63,8.35,15.52,14.27c3.89,5.92,6.45,12.72,7.69,20.4c1.23,7.68,0.93,15.61-0.91,23.79H902.41z M960.32,87.73
		c0.12-3.81-0.31-7.47-1.28-10.99c-0.97-3.52-2.48-6.59-4.53-9.2c-2.05-2.61-4.65-4.72-7.79-6.34c-3.14-1.62-6.76-2.43-10.84-2.43
		c-4.23,0-8.15,0.74-11.76,2.22c-3.61,1.48-6.79,3.52-9.52,6.13c-2.74,2.61-5.04,5.67-6.89,9.2c-1.85,3.52-3.06,7.33-3.63,11.42
		H960.32z"/>
	<path class="st0" d="M1007.36,116.9c-0.04,7.05,2.12,11.98,6.48,14.8c4.36,2.82,9.77,4.23,16.26,4.23c2.25,0,4.85-0.17,7.77-0.53
		c2.92-0.35,5.71-1.02,8.35-2.01c2.64-0.98,4.87-2.43,6.69-4.33c1.82-1.9,2.82-4.4,3.01-7.51c0.18-3.1-0.68-5.64-2.58-7.61
		c-1.91-1.97-4.46-3.56-7.64-4.76c-3.19-1.2-6.85-2.22-10.99-3.07c-4.14-0.85-8.34-1.76-12.61-2.75c-4.41-0.98-8.62-2.18-12.62-3.59
		c-4.01-1.41-7.55-3.31-10.61-5.71c-3.06-2.4-5.38-5.46-6.96-9.2c-1.58-3.73-2.08-8.35-1.51-13.85c0.62-5.92,2.59-10.89,5.9-14.91
		c3.31-4.02,7.32-7.26,12.02-9.73c4.7-2.46,9.81-4.19,15.34-5.18c5.53-0.98,10.76-1.48,15.7-1.48c5.64,0,10.96,0.6,15.99,1.8
		c5.02,1.2,9.47,3.14,13.34,5.81c3.87,2.68,6.96,6.17,9.26,10.47c2.3,4.3,3.48,9.48,3.55,15.54h-25.16
		c-0.52-5.78-2.76-9.65-6.71-11.63c-3.95-1.97-8.61-2.96-13.96-2.96c-1.69,0-3.71,0.14-6.07,0.42c-2.36,0.28-4.6,0.81-6.72,1.59
		c-2.13,0.78-3.97,1.9-5.54,3.38c-1.57,1.48-2.47,3.42-2.73,5.81c-0.31,2.96,0.46,5.36,2.31,7.19c1.85,1.83,4.37,3.35,7.56,4.55
		c3.18,1.2,6.85,2.22,10.99,3.07c4.14,0.85,8.41,1.76,12.82,2.75c4.26,0.99,8.44,2.19,12.52,3.59c4.08,1.41,7.65,3.31,10.71,5.71
		c3.06,2.4,5.42,5.43,7.08,9.09c1.66,3.67,2.21,8.18,1.64,13.53c-0.68,6.48-2.74,11.98-6.17,16.49c-3.43,4.51-7.66,8.18-12.68,10.99
		c-5.02,2.82-10.48,4.86-16.4,6.13c-5.91,1.27-11.69,1.9-17.33,1.9c-6.91,0-13.21-0.78-18.89-2.33c-5.69-1.55-10.51-3.91-14.48-7.08
		c-3.97-3.17-6.94-7.12-8.9-11.84c-1.97-4.72-2.69-10.32-2.14-16.81H1007.36z"/>
</g>
</svg>
