<?xml version="1.0" encoding="utf-8"?>
<!-- Generator: Adobe Illustrator 25.2.2, SVG Export Plug-In . SVG Version: 6.00 Build 0)  -->
<svg version="1.1" id="Calque_1" xmlns="http://www.w3.org/2000/svg" xmlns:xlink="http://www.w3.org/1999/xlink" x="0px" y="0px"
	 viewBox="0 0 542.44 167.22" style="enable-background:new 0 0 542.44 167.22;" xml:space="preserve">
<style type="text/css">
	.st0{display:none;}
	.st1{display:inline;}
	.st2{fill:#0F5490;}
	.st3{display:inline;fill:#FFFFFF;}
</style>
<g id="NOIR" class="st0">
	<path class="st1" d="M30.63,35.25h20.35L40.12,137.08c-0.96,9.16-3.73,16.25-8.3,21.25c-4.57,5-11.62,7.5-21.14,7.5
		c-2.03,0-3.71-0.06-5.07-0.18c-1.35-0.12-2.67-0.3-3.96-0.54l1.69-16.07c1.29,0.24,2.52,0.42,3.69,0.54
		c1.18,0.12,2.24,0.18,3.19,0.18c3.69,0,6.1-1.13,7.23-3.39c1.13-2.26,1.93-5.66,2.41-10.18L30.63,35.25z M33.61,3.12h20.35
		L51.94,22.4H31.59L33.61,3.12z"/>
	<path class="st1" d="M97.26,132.85c-7.37,0-13.8-1.22-19.31-3.65c-5.51-2.43-10.03-5.79-13.56-10.07
		c-3.53-4.28-6.03-9.39-7.48-15.33c-1.46-5.94-1.81-12.48-1.06-19.61c0.74-7.01,2.46-13.48,5.16-19.43
		c2.7-5.94,6.27-11.05,10.7-15.33c4.43-4.28,9.65-7.63,15.67-10.07c6.02-2.43,12.71-3.65,20.08-3.65c7.37,0,13.8,1.22,19.31,3.65
		c5.51,2.44,10.02,5.79,13.56,10.07c3.53,4.28,6.02,9.39,7.48,15.33c1.45,5.94,1.81,12.42,1.08,19.43
		c-0.75,7.13-2.48,13.66-5.18,19.61c-2.71,5.94-6.27,11.05-10.7,15.33c-4.43,4.28-9.66,7.64-15.67,10.07
		C111.32,131.63,104.63,132.85,97.26,132.85z M98.95,116.81c4.51,0,8.54-0.95,12.06-2.85c3.52-1.9,6.52-4.39,8.99-7.49
		c2.46-3.09,4.4-6.56,5.82-10.43c1.41-3.86,2.34-7.81,2.76-11.85c0.41-3.92,0.32-7.84-0.28-11.76c-0.6-3.92-1.81-7.4-3.63-10.43
		c-1.82-3.03-4.3-5.49-7.42-7.4c-3.13-1.9-6.95-2.85-11.46-2.85c-4.52,0-8.54,0.95-12.06,2.85c-3.53,1.9-6.52,4.37-8.98,7.4
		c-2.46,3.03-4.4,6.51-5.82,10.43c-1.42,3.92-2.34,7.84-2.75,11.76c-0.42,4.04-0.34,7.99,0.27,11.85c0.6,3.86,1.81,7.34,3.63,10.43
		c1.81,3.09,4.28,5.59,7.41,7.49C90.61,115.86,94.43,116.81,98.95,116.81z"/>
	<path class="st1" d="M172.57,100.59c-0.03,5.95,1.79,10.12,5.47,12.5c3.68,2.38,8.25,3.57,13.73,3.57c1.9,0,4.09-0.15,6.56-0.45
		c2.47-0.3,4.82-0.86,7.05-1.7c2.23-0.83,4.11-2.05,5.65-3.66c1.54-1.61,2.38-3.72,2.54-6.34c0.16-2.62-0.57-4.76-2.18-6.43
		c-1.61-1.67-3.76-3-6.45-4.02c-2.69-1.01-5.78-1.87-9.28-2.59c-3.5-0.71-7.05-1.49-10.65-2.32c-3.72-0.83-7.28-1.84-10.66-3.04
		c-3.39-1.19-6.37-2.79-8.96-4.82c-2.59-2.02-4.55-4.61-5.88-7.77c-1.34-3.15-1.76-7.05-1.27-11.69c0.53-5,2.19-9.19,4.98-12.59
		c2.79-3.39,6.18-6.13,10.15-8.21c3.97-2.08,8.29-3.54,12.96-4.37c4.67-0.83,9.09-1.25,13.25-1.25c4.76,0,9.26,0.51,13.5,1.52
		c4.24,1.01,7.99,2.65,11.27,4.91c3.27,2.26,5.88,5.21,7.82,8.84c1.94,3.63,2.94,8.01,2.99,13.12h-21.25
		c-0.44-4.88-2.33-8.15-5.66-9.82c-3.34-1.67-7.27-2.5-11.79-2.5c-1.43,0-3.14,0.12-5.13,0.36c-1.99,0.24-3.88,0.69-5.68,1.34
		c-1.8,0.66-3.35,1.61-4.67,2.86c-1.32,1.25-2.09,2.89-2.3,4.91c-0.26,2.5,0.39,4.53,1.96,6.07c1.57,1.55,3.7,2.83,6.4,3.84
		c2.7,1.01,5.8,1.87,9.31,2.59c3.51,0.71,7.12,1.49,10.86,2.32c3.61,0.83,7.15,1.85,10.6,3.04c3.46,1.19,6.48,2.8,9.07,4.82
		c2.59,2.03,4.59,4.58,6,7.68c1.4,3.1,1.87,6.9,1.4,11.43c-0.58,5.48-2.32,10.12-5.22,13.93c-2.91,3.81-6.48,6.91-10.73,9.28
		c-4.25,2.38-8.87,4.11-13.87,5.18c-5.01,1.07-9.89,1.61-14.66,1.61c-5.85,0-11.18-0.66-15.99-1.96c-4.81-1.31-8.9-3.3-12.25-5.98
		c-3.36-2.68-5.87-6.01-7.54-10c-1.67-3.99-2.28-8.72-1.82-14.19H172.57z"/>
	<path class="st1" d="M250.92,3.25h20.35l-2.03,19.28h-20.35L250.92,3.25z M248.22,35.42h20.35l-10.7,97.8h-20.35L248.22,35.42z"/>
	<path class="st1" d="M349.07,110.19c-0.26,2.5-0.12,4.28,0.42,5.36c0.54,1.07,1.76,1.61,3.67,1.61c0.59,0,1.31,0,2.14,0
		c0.83,0,1.8-0.12,2.89-0.36l-1.48,14.1c-0.74,0.24-1.69,0.51-2.85,0.8c-1.16,0.3-2.35,0.56-3.57,0.8
		c-1.22,0.24-2.43,0.42-3.63,0.54c-1.2,0.12-2.22,0.18-3.05,0.18c-4.17,0-7.53-0.83-10.09-2.5c-2.56-1.67-4.04-4.58-4.44-8.75
		c-4.46,3.93-9.73,6.78-15.81,8.57c-6.08,1.79-11.86,2.68-17.33,2.68c-4.17,0-8.09-0.57-11.78-1.7c-3.69-1.13-6.88-2.8-9.56-5
		c-2.69-2.2-4.71-5-6.08-8.39c-1.37-3.39-1.82-7.35-1.34-11.87c0.6-5.71,2.13-10.36,4.59-13.93c2.46-3.57,5.49-6.37,9.1-8.39
		c3.6-2.02,7.57-3.48,11.89-4.37c4.32-0.89,8.65-1.58,12.98-2.05c3.76-0.71,7.33-1.22,10.69-1.52c3.36-0.3,6.36-0.8,9-1.52
		c2.63-0.71,4.77-1.81,6.42-3.3c1.64-1.49,2.62-3.72,2.94-6.7c0.28-2.62-0.13-4.76-1.2-6.43c-1.07-1.67-2.49-2.95-4.24-3.84
		c-1.75-0.89-3.74-1.49-5.97-1.79c-2.23-0.3-4.36-0.45-6.38-0.45c-5.71,0-10.54,1.19-14.48,3.57c-3.94,2.38-6.41,6.07-7.41,11.07
		h-20.35c0.98-5.95,2.93-10.89,5.84-14.82c2.91-3.93,6.43-7.08,10.55-9.46c4.12-2.38,8.67-4.04,13.65-5
		c4.98-0.95,10.03-1.43,15.15-1.43c4.52,0,8.94,0.48,13.24,1.43c4.3,0.95,8.1,2.5,11.39,4.64c3.28,2.14,5.82,4.91,7.61,8.3
		c1.79,3.39,2.42,7.53,1.91,12.41L349.07,110.19z M331.42,84.48c-3.31,2.02-7.25,3.24-11.81,3.66c-4.57,0.42-9.16,1.04-13.77,1.87
		c-2.18,0.36-4.32,0.87-6.41,1.52c-2.09,0.66-3.97,1.55-5.64,2.68c-1.67,1.13-3.04,2.62-4.13,4.46c-1.09,1.85-1.77,4.08-2.04,6.7
		c-0.24,2.26,0.21,4.17,1.36,5.71c1.14,1.55,2.59,2.77,4.35,3.66c1.75,0.89,3.71,1.52,5.87,1.87c2.16,0.36,4.14,0.54,5.92,0.54
		c2.26,0,4.73-0.3,7.41-0.89c2.68-0.59,5.26-1.61,7.73-3.04s4.6-3.24,6.38-5.45c1.78-2.2,2.84-4.91,3.17-8.12L331.42,84.48z"/>
	<path class="st1" d="M442.41,133.22h-20.07l6.47-57.96c0.35-3.28,0.14-6.4-0.6-9.33c-0.75-2.93-1.95-5.49-3.6-7.66
		c-1.65-2.17-3.76-3.87-6.33-5.11c-2.57-1.23-5.56-1.85-8.96-1.85c-5.99,0-10.56,1.61-13.71,4.84c-3.16,3.23-5.23,8.42-6.21,15.58
		l-6.84,61.49h-20.07l7.39-66.77c1.09-10.33,4.78-18.07,11.07-23.24c6.29-5.16,14.43-7.75,24.41-7.75c5.99,0,11.29,1.44,15.92,4.31
		c4.63,2.88,8.2,6.84,10.72,11.88l0.39-0.35l1.41-15.4h19.01L442.41,133.22z"/>
	<path class="st1" d="M472.01,89.38c-0.38,3.57-0.23,7.02,0.43,10.36c0.66,3.33,1.87,6.25,3.63,8.75c1.76,2.5,4.11,4.49,7.05,5.98
		c2.94,1.49,6.55,2.23,10.84,2.23c5.95,0,10.87-1.28,14.78-3.84c3.9-2.56,7.01-6.4,9.33-11.52h19.28c-1.6,5-3.91,9.46-6.94,13.39
		c-3.03,3.93-6.53,7.23-10.5,9.91c-3.97,2.68-8.32,4.7-13.05,6.07c-4.73,1.37-9.59,2.05-14.59,2.05c-7.26,0-13.56-1.19-18.91-3.57
		c-5.35-2.38-9.73-5.71-13.14-10c-3.42-4.28-5.8-9.4-7.14-15.35c-1.34-5.95-1.63-12.5-0.88-19.64c0.69-6.54,2.38-12.77,5.09-18.66
		c2.7-5.89,6.22-11.07,10.56-15.53c4.34-4.46,9.38-8,15.13-10.62c5.75-2.62,12.08-3.93,18.98-3.93c7.26,0,13.62,1.52,19.07,4.55
		c5.45,3.04,9.82,7.05,13.11,12.05c3.28,5,5.45,10.74,6.49,17.23c1.04,6.49,0.78,13.18-0.77,20.09H472.01z M520.91,75.99
		c0.1-3.21-0.26-6.31-1.08-9.28c-0.82-2.97-2.09-5.56-3.83-7.77c-1.73-2.2-3.93-3.99-6.58-5.36c-2.65-1.37-5.71-2.05-9.16-2.05
		c-3.57,0-6.88,0.62-9.93,1.87c-3.05,1.25-5.73,2.98-8.04,5.18c-2.32,2.2-4.25,4.79-5.81,7.77c-1.56,2.98-2.59,6.19-3.07,9.64
		H520.91z"/>
</g>
<g id="BLEU">
	<path class="st2" d="M30.63,35.25h20.35L40.12,137.08c-0.96,9.16-3.73,16.25-8.3,21.25c-4.57,5-11.62,7.5-21.14,7.5
		c-2.03,0-3.71-0.06-5.07-0.18c-1.35-0.12-2.67-0.3-3.96-0.54l1.69-16.07c1.29,0.24,2.52,0.42,3.69,0.54
		c1.18,0.12,2.24,0.18,3.19,0.18c3.69,0,6.1-1.13,7.23-3.39c1.13-2.26,1.93-5.66,2.41-10.18L30.63,35.25z M33.61,3.12h20.35
		L51.94,22.4H31.59L33.61,3.12z"/>
	<path class="st2" d="M97.26,132.85c-7.37,0-13.8-1.22-19.31-3.65c-5.51-2.43-10.03-5.79-13.56-10.07
		c-3.53-4.28-6.03-9.39-7.48-15.33c-1.46-5.94-1.81-12.48-1.06-19.61c0.74-7.01,2.46-13.48,5.16-19.43
		c2.7-5.94,6.27-11.05,10.7-15.33c4.43-4.28,9.65-7.63,15.67-10.07c6.02-2.43,12.71-3.65,20.08-3.65c7.37,0,13.8,1.22,19.31,3.65
		c5.51,2.44,10.02,5.79,13.56,10.07c3.53,4.28,6.02,9.39,7.48,15.33c1.45,5.94,1.81,12.42,1.08,19.43
		c-0.75,7.13-2.48,13.66-5.18,19.61c-2.71,5.94-6.27,11.05-10.7,15.33c-4.43,4.28-9.66,7.64-15.67,10.07
		C111.32,131.63,104.63,132.85,97.26,132.85z M98.95,116.81c4.51,0,8.54-0.95,12.06-2.85c3.52-1.9,6.52-4.39,8.99-7.49
		c2.46-3.09,4.4-6.56,5.82-10.43c1.41-3.86,2.34-7.81,2.76-11.85c0.41-3.92,0.32-7.84-0.28-11.76c-0.6-3.92-1.81-7.4-3.63-10.43
		c-1.82-3.03-4.3-5.49-7.42-7.4c-3.13-1.9-6.95-2.85-11.46-2.85c-4.52,0-8.54,0.95-12.06,2.85c-3.53,1.9-6.52,4.37-8.98,7.4
		c-2.46,3.03-4.4,6.51-5.82,10.43c-1.42,3.92-2.34,7.84-2.75,11.76c-0.42,4.04-0.34,7.99,0.27,11.85c0.6,3.86,1.81,7.34,3.63,10.43
		c1.81,3.09,4.28,5.59,7.41,7.49C90.61,115.86,94.43,116.81,98.95,116.81z"/>
	<path class="st2" d="M172.57,100.59c-0.03,5.95,1.79,10.12,5.47,12.5c3.68,2.38,8.25,3.57,13.73,3.57c1.9,0,4.09-0.15,6.56-0.45
		c2.47-0.3,4.82-0.86,7.05-1.7c2.23-0.83,4.11-2.05,5.65-3.66c1.54-1.61,2.38-3.72,2.54-6.34c0.16-2.62-0.57-4.76-2.18-6.43
		c-1.61-1.67-3.76-3-6.45-4.02c-2.69-1.01-5.78-1.87-9.28-2.59c-3.5-0.71-7.05-1.49-10.65-2.32c-3.72-0.83-7.28-1.84-10.66-3.04
		c-3.39-1.19-6.37-2.79-8.96-4.82c-2.59-2.02-4.55-4.61-5.88-7.77c-1.34-3.15-1.76-7.05-1.27-11.69c0.53-5,2.19-9.19,4.98-12.59
		c2.79-3.39,6.18-6.13,10.15-8.21c3.97-2.08,8.29-3.54,12.96-4.37c4.67-0.83,9.09-1.25,13.25-1.25c4.76,0,9.26,0.51,13.5,1.52
		c4.24,1.01,7.99,2.65,11.27,4.91c3.27,2.26,5.88,5.21,7.82,8.84c1.94,3.63,2.94,8.01,2.99,13.12h-21.25
		c-0.44-4.88-2.33-8.15-5.66-9.82c-3.34-1.67-7.27-2.5-11.79-2.5c-1.43,0-3.14,0.12-5.13,0.36c-1.99,0.24-3.88,0.69-5.68,1.34
		c-1.8,0.66-3.35,1.61-4.67,2.86c-1.32,1.25-2.09,2.89-2.3,4.91c-0.26,2.5,0.39,4.53,1.96,6.07c1.57,1.55,3.7,2.83,6.4,3.84
		c2.7,1.01,5.8,1.87,9.31,2.59c3.51,0.71,7.12,1.49,10.86,2.32c3.61,0.83,7.15,1.85,10.6,3.04c3.46,1.19,6.48,2.8,9.07,4.82
		c2.59,2.03,4.59,4.58,6,7.68c1.4,3.1,1.87,6.9,1.4,11.43c-0.58,5.48-2.32,10.12-5.22,13.93c-2.91,3.81-6.48,6.91-10.73,9.28
		c-4.25,2.38-8.87,4.11-13.87,5.18c-5.01,1.07-9.89,1.61-14.66,1.61c-5.85,0-11.18-0.66-15.99-1.96c-4.81-1.31-8.9-3.3-12.25-5.98
		c-3.36-2.68-5.87-6.01-7.54-10c-1.67-3.99-2.28-8.72-1.82-14.19H172.57z"/>
	<path class="st2" d="M250.92,3.25h20.35l-2.03,19.28h-20.35L250.92,3.25z M248.22,35.42h20.35l-10.7,97.8h-20.35L248.22,35.42z"/>
	<path class="st2" d="M349.07,110.19c-0.26,2.5-0.12,4.28,0.42,5.36c0.54,1.07,1.76,1.61,3.67,1.61c0.59,0,1.31,0,2.14,0
		c0.83,0,1.8-0.12,2.89-0.36l-1.48,14.1c-0.74,0.24-1.69,0.51-2.85,0.8c-1.16,0.3-2.35,0.56-3.57,0.8
		c-1.22,0.24-2.43,0.42-3.63,0.54c-1.2,0.12-2.22,0.18-3.05,0.18c-4.17,0-7.53-0.83-10.09-2.5c-2.56-1.67-4.04-4.58-4.44-8.75
		c-4.46,3.93-9.73,6.78-15.81,8.57c-6.08,1.79-11.86,2.68-17.33,2.68c-4.17,0-8.09-0.57-11.78-1.7c-3.69-1.13-6.88-2.8-9.56-5
		c-2.69-2.2-4.71-5-6.08-8.39c-1.37-3.39-1.82-7.35-1.34-11.87c0.6-5.71,2.13-10.36,4.59-13.93c2.46-3.57,5.49-6.37,9.1-8.39
		c3.6-2.02,7.57-3.48,11.89-4.37c4.32-0.89,8.65-1.58,12.98-2.05c3.76-0.71,7.33-1.22,10.69-1.52c3.36-0.3,6.36-0.8,9-1.52
		c2.63-0.71,4.77-1.81,6.42-3.3c1.64-1.49,2.62-3.72,2.94-6.7c0.28-2.62-0.13-4.76-1.2-6.43c-1.07-1.67-2.49-2.95-4.24-3.84
		c-1.75-0.89-3.74-1.49-5.97-1.79c-2.23-0.3-4.36-0.45-6.38-0.45c-5.71,0-10.54,1.19-14.48,3.57c-3.94,2.38-6.41,6.07-7.41,11.07
		h-20.35c0.98-5.95,2.93-10.89,5.84-14.82c2.91-3.93,6.43-7.08,10.55-9.46c4.12-2.38,8.67-4.04,13.65-5
		c4.98-0.95,10.03-1.43,15.15-1.43c4.52,0,8.94,0.48,13.24,1.43c4.3,0.95,8.1,2.5,11.39,4.64c3.28,2.14,5.82,4.91,7.61,8.3
		c1.79,3.39,2.42,7.53,1.91,12.41L349.07,110.19z M331.42,84.48c-3.31,2.02-7.25,3.24-11.81,3.66c-4.57,0.42-9.16,1.04-13.77,1.87
		c-2.18,0.36-4.32,0.87-6.41,1.52c-2.09,0.66-3.97,1.55-5.64,2.68c-1.67,1.13-3.04,2.62-4.13,4.46c-1.09,1.85-1.77,4.08-2.04,6.7
		c-0.24,2.26,0.21,4.17,1.36,5.71c1.14,1.55,2.59,2.77,4.35,3.66c1.75,0.89,3.71,1.52,5.87,1.87c2.16,0.36,4.14,0.54,5.92,0.54
		c2.26,0,4.73-0.3,7.41-0.89c2.68-0.59,5.26-1.61,7.73-3.04s4.6-3.24,6.38-5.45c1.78-2.2,2.84-4.91,3.17-8.12L331.42,84.48z"/>
	<path class="st2" d="M442.41,133.22h-20.07l6.47-57.96c0.35-3.28,0.14-6.4-0.6-9.33c-0.75-2.93-1.95-5.49-3.6-7.66
		c-1.65-2.17-3.76-3.87-6.33-5.11c-2.57-1.23-5.56-1.85-8.96-1.85c-5.99,0-10.56,1.61-13.71,4.84c-3.16,3.23-5.23,8.42-6.21,15.58
		l-6.84,61.49h-20.07l7.39-66.77c1.09-10.33,4.78-18.07,11.07-23.24c6.29-5.16,14.43-7.75,24.41-7.75c5.99,0,11.29,1.44,15.92,4.31
		c4.63,2.88,8.2,6.84,10.72,11.88l0.39-0.35l1.41-15.4h19.01L442.41,133.22z"/>
	<path class="st2" d="M472.01,89.38c-0.38,3.57-0.23,7.02,0.43,10.36c0.66,3.33,1.87,6.25,3.63,8.75c1.76,2.5,4.11,4.49,7.05,5.98
		c2.94,1.49,6.55,2.23,10.84,2.23c5.95,0,10.87-1.28,14.78-3.84c3.9-2.56,7.01-6.4,9.33-11.52h19.28c-1.6,5-3.91,9.46-6.94,13.39
		c-3.03,3.93-6.53,7.23-10.5,9.91c-3.97,2.68-8.32,4.7-13.05,6.07c-4.73,1.37-9.59,2.05-14.59,2.05c-7.26,0-13.56-1.19-18.91-3.57
		c-5.35-2.38-9.73-5.71-13.14-10c-3.42-4.28-5.8-9.4-7.14-15.35c-1.34-5.95-1.63-12.5-0.88-19.64c0.69-6.54,2.38-12.77,5.09-18.66
		c2.7-5.89,6.22-11.07,10.56-15.53c4.34-4.46,9.38-8,15.13-10.62c5.75-2.62,12.08-3.93,18.98-3.93c7.26,0,13.62,1.52,19.07,4.55
		c5.45,3.04,9.82,7.05,13.11,12.05c3.28,5,5.45,10.74,6.49,17.23c1.04,6.49,0.78,13.18-0.77,20.09H472.01z M520.91,75.99
		c0.1-3.21-0.26-6.31-1.08-9.28c-0.82-2.97-2.09-5.56-3.83-7.77c-1.73-2.2-3.93-3.99-6.58-5.36c-2.65-1.37-5.71-2.05-9.16-2.05
		c-3.57,0-6.88,0.62-9.93,1.87c-3.05,1.25-5.73,2.98-8.04,5.18c-2.32,2.2-4.25,4.79-5.81,7.77c-1.56,2.98-2.59,6.19-3.07,9.64
		H520.91z"/>
</g>
<g id="BLANC" class="st0">
	<path class="st3" d="M30.63,35.25h20.35L40.12,137.08c-0.96,9.16-3.73,16.25-8.3,21.25c-4.57,5-11.62,7.5-21.14,7.5
		c-2.03,0-3.71-0.06-5.07-0.18c-1.35-0.12-2.67-0.3-3.96-0.54l1.69-16.07c1.29,0.24,2.52,0.42,3.69,0.54
		c1.18,0.12,2.24,0.18,3.19,0.18c3.69,0,6.1-1.13,7.23-3.39c1.13-2.26,1.93-5.66,2.41-10.18L30.63,35.25z M33.61,3.12h20.35
		L51.94,22.4H31.59L33.61,3.12z"/>
	<path class="st3" d="M97.26,132.85c-7.37,0-13.8-1.22-19.31-3.65c-5.51-2.43-10.03-5.79-13.56-10.07
		c-3.53-4.28-6.03-9.39-7.48-15.33c-1.46-5.94-1.81-12.48-1.06-19.61c0.74-7.01,2.46-13.48,5.16-19.43
		c2.7-5.94,6.27-11.05,10.7-15.33c4.43-4.28,9.65-7.63,15.67-10.07c6.02-2.43,12.71-3.65,20.08-3.65c7.37,0,13.8,1.22,19.31,3.65
		c5.51,2.44,10.02,5.79,13.56,10.07c3.53,4.28,6.02,9.39,7.48,15.33c1.45,5.94,1.81,12.42,1.08,19.43
		c-0.75,7.13-2.48,13.66-5.18,19.61c-2.71,5.94-6.27,11.05-10.7,15.33c-4.43,4.28-9.66,7.64-15.67,10.07
		C111.32,131.63,104.63,132.85,97.26,132.85z M98.95,116.81c4.51,0,8.54-0.95,12.06-2.85c3.52-1.9,6.52-4.39,8.99-7.49
		c2.46-3.09,4.4-6.56,5.82-10.43c1.41-3.86,2.34-7.81,2.76-11.85c0.41-3.92,0.32-7.84-0.28-11.76c-0.6-3.92-1.81-7.4-3.63-10.43
		c-1.82-3.03-4.3-5.49-7.42-7.4c-3.13-1.9-6.95-2.85-11.46-2.85c-4.52,0-8.54,0.95-12.06,2.85c-3.53,1.9-6.52,4.37-8.98,7.4
		c-2.46,3.03-4.4,6.51-5.82,10.43c-1.42,3.92-2.34,7.84-2.75,11.76c-0.42,4.04-0.34,7.99,0.27,11.85c0.6,3.86,1.81,7.34,3.63,10.43
		c1.81,3.09,4.28,5.59,7.41,7.49C90.61,115.86,94.43,116.81,98.95,116.81z"/>
	<path class="st3" d="M172.57,100.59c-0.03,5.95,1.79,10.12,5.47,12.5c3.68,2.38,8.25,3.57,13.73,3.57c1.9,0,4.09-0.15,6.56-0.45
		c2.47-0.3,4.82-0.86,7.05-1.7c2.23-0.83,4.11-2.05,5.65-3.66c1.54-1.61,2.38-3.72,2.54-6.34c0.16-2.62-0.57-4.76-2.18-6.43
		c-1.61-1.67-3.76-3-6.45-4.02c-2.69-1.01-5.78-1.87-9.28-2.59c-3.5-0.71-7.05-1.49-10.65-2.32c-3.72-0.83-7.28-1.84-10.66-3.04
		c-3.39-1.19-6.37-2.79-8.96-4.82c-2.59-2.02-4.55-4.61-5.88-7.77c-1.34-3.15-1.76-7.05-1.27-11.69c0.53-5,2.19-9.19,4.98-12.59
		c2.79-3.39,6.18-6.13,10.15-8.21c3.97-2.08,8.29-3.54,12.96-4.37c4.67-0.83,9.09-1.25,13.25-1.25c4.76,0,9.26,0.51,13.5,1.52
		c4.24,1.01,7.99,2.65,11.27,4.91c3.27,2.26,5.88,5.21,7.82,8.84c1.94,3.63,2.94,8.01,2.99,13.12h-21.25
		c-0.44-4.88-2.33-8.15-5.66-9.82c-3.34-1.67-7.27-2.5-11.79-2.5c-1.43,0-3.14,0.12-5.13,0.36c-1.99,0.24-3.88,0.69-5.68,1.34
		c-1.8,0.66-3.35,1.61-4.67,2.86c-1.32,1.25-2.09,2.89-2.3,4.91c-0.26,2.5,0.39,4.53,1.96,6.07c1.57,1.55,3.7,2.83,6.4,3.84
		c2.7,1.01,5.8,1.87,9.31,2.59c3.51,0.71,7.12,1.49,10.86,2.32c3.61,0.83,7.15,1.85,10.6,3.04c3.46,1.19,6.48,2.8,9.07,4.82
		c2.59,2.03,4.59,4.58,6,7.68c1.4,3.1,1.87,6.9,1.4,11.43c-0.58,5.48-2.32,10.12-5.22,13.93c-2.91,3.81-6.48,6.91-10.73,9.28
		c-4.25,2.38-8.87,4.11-13.87,5.18c-5.01,1.07-9.89,1.61-14.66,1.61c-5.85,0-11.18-0.66-15.99-1.96c-4.81-1.31-8.9-3.3-12.25-5.98
		c-3.36-2.68-5.87-6.01-7.54-10c-1.67-3.99-2.28-8.72-1.82-14.19H172.57z"/>
	<path class="st3" d="M250.92,3.25h20.35l-2.03,19.28h-20.35L250.92,3.25z M248.22,35.42h20.35l-10.7,97.8h-20.35L248.22,35.42z"/>
	<path class="st3" d="M349.07,110.19c-0.26,2.5-0.12,4.28,0.42,5.36c0.54,1.07,1.76,1.61,3.67,1.61c0.59,0,1.31,0,2.14,0
		c0.83,0,1.8-0.12,2.89-0.36l-1.48,14.1c-0.74,0.24-1.69,0.51-2.85,0.8c-1.16,0.3-2.35,0.56-3.57,0.8
		c-1.22,0.24-2.43,0.42-3.63,0.54c-1.2,0.12-2.22,0.18-3.05,0.18c-4.17,0-7.53-0.83-10.09-2.5c-2.56-1.67-4.04-4.58-4.44-8.75
		c-4.46,3.93-9.73,6.78-15.81,8.57c-6.08,1.79-11.86,2.68-17.33,2.68c-4.17,0-8.09-0.57-11.78-1.7c-3.69-1.13-6.88-2.8-9.56-5
		c-2.69-2.2-4.71-5-6.08-8.39c-1.37-3.39-1.82-7.35-1.34-11.87c0.6-5.71,2.13-10.36,4.59-13.93c2.46-3.57,5.49-6.37,9.1-8.39
		c3.6-2.02,7.57-3.48,11.89-4.37c4.32-0.89,8.65-1.58,12.98-2.05c3.76-0.71,7.33-1.22,10.69-1.52c3.36-0.3,6.36-0.8,9-1.52
		c2.63-0.71,4.77-1.81,6.42-3.3c1.64-1.49,2.62-3.72,2.94-6.7c0.28-2.62-0.13-4.76-1.2-6.43c-1.07-1.67-2.49-2.95-4.24-3.84
		c-1.75-0.89-3.74-1.49-5.97-1.79c-2.23-0.3-4.36-0.45-6.38-0.45c-5.71,0-10.54,1.19-14.48,3.57c-3.94,2.38-6.41,6.07-7.41,11.07
		h-20.35c0.98-5.95,2.93-10.89,5.84-14.82c2.91-3.93,6.43-7.08,10.55-9.46c4.12-2.38,8.67-4.04,13.65-5
		c4.98-0.95,10.03-1.43,15.15-1.43c4.52,0,8.94,0.48,13.24,1.43c4.3,0.95,8.1,2.5,11.39,4.64c3.28,2.14,5.82,4.91,7.61,8.3
		c1.79,3.39,2.42,7.53,1.91,12.41L349.07,110.19z M331.42,84.48c-3.31,2.02-7.25,3.24-11.81,3.66c-4.57,0.42-9.16,1.04-13.77,1.87
		c-2.18,0.36-4.32,0.87-6.41,1.52c-2.09,0.66-3.97,1.55-5.64,2.68c-1.67,1.13-3.04,2.62-4.13,4.46c-1.09,1.85-1.77,4.08-2.04,6.7
		c-0.24,2.26,0.21,4.17,1.36,5.71c1.14,1.55,2.59,2.77,4.35,3.66c1.75,0.89,3.71,1.52,5.87,1.87c2.16,0.36,4.14,0.54,5.92,0.54
		c2.26,0,4.73-0.3,7.41-0.89c2.68-0.59,5.26-1.61,7.73-3.04s4.6-3.24,6.38-5.45c1.78-2.2,2.84-4.91,3.17-8.12L331.42,84.48z"/>
	<path class="st3" d="M442.41,133.22h-20.07l6.47-57.96c0.35-3.28,0.14-6.4-0.6-9.33c-0.75-2.93-1.95-5.49-3.6-7.66
		c-1.65-2.17-3.76-3.87-6.33-5.11c-2.57-1.23-5.56-1.85-8.96-1.85c-5.99,0-10.56,1.61-13.71,4.84c-3.16,3.23-5.23,8.42-6.21,15.58
		l-6.84,61.49h-20.07l7.39-66.77c1.09-10.33,4.78-18.07,11.07-23.24c6.29-5.16,14.43-7.75,24.41-7.75c5.99,0,11.29,1.44,15.92,4.31
		c4.63,2.88,8.2,6.84,10.72,11.88l0.39-0.35l1.41-15.4h19.01L442.41,133.22z"/>
	<path class="st3" d="M472.01,89.38c-0.38,3.57-0.23,7.02,0.43,10.36c0.66,3.33,1.87,6.25,3.63,8.75c1.76,2.5,4.11,4.49,7.05,5.98
		c2.94,1.49,6.55,2.23,10.84,2.23c5.95,0,10.87-1.28,14.78-3.84c3.9-2.56,7.01-6.4,9.33-11.52h19.28c-1.6,5-3.91,9.46-6.94,13.39
		c-3.03,3.93-6.53,7.23-10.5,9.91c-3.97,2.68-8.32,4.7-13.05,6.07c-4.73,1.37-9.59,2.05-14.59,2.05c-7.26,0-13.56-1.19-18.91-3.57
		c-5.35-2.38-9.73-5.71-13.14-10c-3.42-4.28-5.8-9.4-7.14-15.35c-1.34-5.95-1.63-12.5-0.88-19.64c0.69-6.54,2.38-12.77,5.09-18.66
		c2.7-5.89,6.22-11.07,10.56-15.53c4.34-4.46,9.38-8,15.13-10.62c5.75-2.62,12.08-3.93,18.98-3.93c7.26,0,13.62,1.52,19.07,4.55
		c5.45,3.04,9.82,7.05,13.11,12.05c3.28,5,5.45,10.74,6.49,17.23c1.04,6.49,0.78,13.18-0.77,20.09H472.01z M520.91,75.99
		c0.1-3.21-0.26-6.31-1.08-9.28c-0.82-2.97-2.09-5.56-3.83-7.77c-1.73-2.2-3.93-3.99-6.58-5.36c-2.65-1.37-5.71-2.05-9.16-2.05
		c-3.57,0-6.88,0.62-9.93,1.87c-3.05,1.25-5.73,2.98-8.04,5.18c-2.32,2.2-4.25,4.79-5.81,7.77c-1.56,2.98-2.59,6.19-3.07,9.64
		H520.91z"/>
</g>
<g id="REPERES" class="st0">
</g>
</svg>
