<?xml version="1.0" encoding="utf-8"?>
<!-- Generator: Adobe Illustrator 25.2.3, SVG Export Plug-In . SVG Version: 6.00 Build 0)  -->
<svg version="1.1" id="Calque_1" xmlns="http://www.w3.org/2000/svg" xmlns:xlink="http://www.w3.org/1999/xlink" x="0px" y="0px"
	 viewBox="0 0 71 25" style="enable-background:new 0 0 71 25;" xml:space="preserve">
<style type="text/css">
	.st0{fill:#CCCCCC;}
</style>
<path class="st0" d="M2,13.4h63.9l-12.7,9.1c-0.5,0.3-0.5,0.9-0.2,1.4c0.3,0.4,1,0.5,1.4,0.2l15.2-10.9c0,0,0.1-0.1,0.1-0.1
	c0,0,0,0,0,0c0.1-0.1,0.2-0.2,0.2-0.3c0,0,0,0,0,0c0.1-0.1,0.1-0.2,0.1-0.4s0-0.2-0.1-0.4c0,0,0,0,0,0c-0.1-0.1-0.1-0.2-0.2-0.3
	c0,0,0,0,0,0c0,0-0.1-0.1-0.1-0.1L54.4,0.7c-0.2-0.1-0.4-0.2-0.6-0.2c-0.3,0-0.6,0.1-0.8,0.4c-0.3,0.5-0.2,1.1,0.2,1.4l12.7,9.1H2
	c-0.6,0-1,0.4-1,1S1.4,13.4,2,13.4z"/>
</svg>
