<?xml version="1.0" encoding="utf-8"?>
<!-- Generator: Adobe Illustrator 25.2.3, SVG Export Plug-In . SVG Version: 6.00 Build 0)  -->
<svg version="1.1" id="Calque_1" xmlns="http://www.w3.org/2000/svg" xmlns:xlink="http://www.w3.org/1999/xlink" x="0px" y="0px"
	 viewBox="0 0 71 25" style="enable-background:new 0 0 71 25;" xml:space="preserve">
<style type="text/css">
	.st0{fill:#CCCCCC;}
</style>
<path class="st0" d="M69,11.43H5.11L17.8,2.32c0.45-0.32,0.55-0.95,0.23-1.4s-0.95-0.55-1.4-0.23L1.42,11.62
	c-0.04,0.03-0.07,0.06-0.1,0.09c-0.01,0.01-0.02,0.02-0.03,0.03c-0.08,0.09-0.15,0.18-0.2,0.29c0,0.01-0.01,0.02-0.01,0.03
	C1.03,12.18,1,12.3,1,12.43c0,0.13,0.03,0.25,0.08,0.37c0,0.01,0.01,0.02,0.01,0.03c0.05,0.11,0.11,0.21,0.2,0.29
	c0.01,0.01,0.02,0.02,0.03,0.03c0.03,0.03,0.06,0.06,0.1,0.09l15.22,10.94c0.18,0.13,0.38,0.19,0.58,0.19
	c0.31,0,0.62-0.14,0.81-0.42c0.32-0.45,0.22-1.07-0.23-1.4L5.1,13.43H69c0.55,0,1-0.45,1-1S69.55,11.43,69,11.43z"/>
</svg>
