<?xml version="1.0" encoding="utf-8"?>
<!-- Generator: Adobe Illustrator 25.2.3, SVG Export Plug-In . SVG Version: 6.00 Build 0)  -->
<svg version="1.1" id="Calque_1" xmlns="http://www.w3.org/2000/svg" xmlns:xlink="http://www.w3.org/1999/xlink" x="0px" y="0px"
	 viewBox="0 0 29.04 27.68" style="enable-background:new 0 0 29.04 27.68;" xml:space="preserve">
<style type="text/css">
	.st0{fill:#CCCCCC;}
</style>
<path class="st0" d="M1,12.18c-0.55,0-1-0.45-1-1V1c0-0.55,0.45-1,1-1h10.04c0.55,0,1,0.45,1,1s-0.45,1-1,1H2v9.18
	C2,11.73,1.55,12.18,1,12.18z"/>
<path class="st0" d="M11.04,27.68H1c-0.55,0-1-0.45-1-1V17.8c0-0.55,0.45-1,1-1s1,0.45,1,1v7.88h9.04c0.55,0,1,0.45,1,1
	S11.59,27.68,11.04,27.68z"/>
<path class="st0" d="M28,12.18c-0.55,0-1-0.45-1-1V2h-9.38c-0.55,0-1-0.45-1-1s0.45-1,1-1H28c0.55,0,1,0.45,1,1v10.18
	C29,11.73,28.55,12.18,28,12.18z"/>
<path class="st0" d="M28,27.68H17.67c-0.55,0-1-0.45-1-1s0.45-1,1-1H27v-7.93c0-0.55,0.45-1,1-1s1,0.45,1,1v8.93
	C29,27.23,28.55,27.68,28,27.68z"/>
</svg>
