<?xml version="1.0" encoding="utf-8"?>
<!-- Generator: Adobe Illustrator 25.2.3, SVG Export Plug-In . SVG Version: 6.00 Build 0)  -->
<svg version="1.1" id="Calque_1" xmlns="http://www.w3.org/2000/svg" xmlns:xlink="http://www.w3.org/1999/xlink" x="0px" y="0px"
	 viewBox="0 0 29.04 28.18" style="enable-background:new 0 0 29.04 28.18;" xml:space="preserve">
<style type="text/css">
	.st0{fill:#CCCCCC;}
</style>
<g>
	<g>
		<path class="st0" d="M8.42,1.9c0.52,0,0.94,0.39,0.94,0.87v22.64c0,0.48-0.42,0.87-0.94,0.87c-0.52,0-0.94-0.39-0.94-0.87V2.77
			C7.49,2.28,7.91,1.9,8.42,1.9 M8.42,0.09c-1.51,0-2.75,1.2-2.75,2.68v22.64c0,1.48,1.23,2.68,2.75,2.68s2.75-1.2,2.75-2.68V2.77
			C11.17,1.29,9.94,0.09,8.42,0.09L8.42,0.09z"/>
	</g>
	<g>
		<path class="st0" d="M20.62,1.9c0.52,0,0.94,0.39,0.94,0.87v22.64c0,0.48-0.42,0.87-0.94,0.87s-0.94-0.39-0.94-0.87V2.77
			C19.68,2.28,20.1,1.9,20.62,1.9 M20.62,0.09c-1.51,0-2.75,1.2-2.75,2.68v22.64c0,1.48,1.23,2.68,2.75,2.68
			c1.51,0,2.75-1.2,2.75-2.68V2.77C23.36,1.29,22.13,0.09,20.62,0.09L20.62,0.09z"/>
	</g>
</g>
</svg>
