<svg xmlns="http://www.w3.org/2000/svg" xmlns:xlink="http://www.w3.org/1999/xlink" version="1.1" x="0px" y="0px" viewBox="0 0 24 30" style="enable-background:new 0 0 24 24;" xml:space="preserve"><g><path d="M13.626,1.833C13.2,1.647,12.713,1.724,12.368,2.04L6.721,7.208c-0.107,0.099-0.25,0.148-0.396,0.148h-1.86   c-1.28,0-2.322,1.052-2.322,2.332v4.622c0,1.28,1.041,2.332,2.322,2.332h1.86c0.146,0,0.285,0.049,0.392,0.148l5.644,5.171   c0.22,0.202,0.497,0.306,0.778,0.306c0.159,0,0.333-0.034,0.486-0.101c0.427-0.188,0.707-0.595,0.707-1.062V2.895   C14.333,2.428,14.053,2.021,13.626,1.833z M7.502,15.933c-0.322-0.295-0.74-0.452-1.177-0.452h-1.86   c-0.64,0-1.161-0.531-1.161-1.171V9.688c0-0.64,0.521-1.171,1.161-1.171h1.86c0.437,0,0.855-0.157,1.177-0.452l5.641-5.177   l0.003,18.214L7.502,15.933z"/><path d="M16.476,6.985c-0.212-0.241-0.579-0.266-0.819-0.054c-0.241,0.211-0.266,0.578-0.055,0.819c2.12,2.422,2.12,6.076,0,8.498   c-0.211,0.241-0.186,0.608,0.055,0.819c0.11,0.096,0.246,0.144,0.382,0.144c0.162,0,0.322-0.067,0.437-0.198   C18.977,14.154,18.977,9.844,16.476,6.985z"/><path d="M18.782,4.08c-0.217-0.235-0.585-0.249-0.82-0.033c-0.235,0.217-0.25,0.585-0.032,0.82c3.691,3.999,3.691,10.265,0,14.264   c-0.218,0.236-0.203,0.603,0.032,0.82c0.112,0.103,0.253,0.154,0.394,0.154c0.156,0,0.312-0.063,0.426-0.187   C22.881,15.478,22.881,8.521,18.782,4.08z"/></g><text x="0" y="39" fill="#000000" font-size="5px" font-weight="bold" font-family="'Helvetica Neue', Helvetica, Arial-Unicode, Arial, Sans-serif">Created by AlePio</text><text x="0" y="44" fill="#ffffff" font-size="5px" font-weight="bold" font-family="'Helvetica Neue', Helvetica, Arial-Unicode, Arial, Sans-serif">from the Noun Project</text></svg>