<?xml version="1.0" encoding="utf-8"?>
<!-- Generator: Adobe Illustrator 25.2.3, SVG Export Plug-In . SVG Version: 6.00 Build 0)  -->
<svg version="1.1" id="Calque_1" xmlns="http://www.w3.org/2000/svg" xmlns:xlink="http://www.w3.org/1999/xlink" x="0px" y="0px"
	 viewBox="0 0 29.04 28.18" style="enable-background:new 0 0 29.04 28.18;" xml:space="preserve">
<style type="text/css">
	.st0{fill:#CCCCCC;}
	.st1{fill:none;}
</style>
<path class="st0" d="M2,27.33c-0.26,0-0.52-0.1-0.72-0.31C0.9,26.63,0.91,26,1.31,25.61l25-24c0.4-0.38,1.03-0.37,1.41,0.03
	c0.38,0.4,0.37,1.03-0.03,1.41l-25,24C2.5,27.24,2.25,27.33,2,27.33z"/>
<g>
	<path class="st1" d="M5.43,8.87v10.48h7.71c0.28,0,0.54,0.11,0.74,0.3l5.05,4.84V3.73l-5.05,4.84c-0.2,0.19-0.46,0.3-0.74,0.3H5.43
		z"/>
	<path class="st0" d="M20.78,0.46c-0.2-0.21-0.47-0.32-0.75-0.33c-0.29,0-0.56,0.1-0.76,0.3l-6.55,6.29H4.36
		c-0.59,0-1.07,0.48-1.07,1.07v12.63c0,0.59,0.48,1.07,1.07,1.07h8.35l6.55,6.29c0.2,0.19,0.46,0.3,0.74,0.3h0
		c0.59,0,1.07-0.48,1.07-1.07V1.21C21.08,0.93,20.98,0.67,20.78,0.46z M18.94,3.73V24.5l-5.05-4.84c-0.2-0.19-0.46-0.3-0.74-0.3
		H5.43V8.87h7.71c0.28,0,0.54-0.11,0.74-0.3L18.94,3.73z"/>
</g>
</svg>
